# xmcd CD database file
#
# Track frame offsets:
#	150
#	14915
#	26765
#	39896
#	56101
#	68349
#	80973
#	101302
#	113604
#	126049
#	139781
#	153531
#	165777
#	179358
#	191433
#	215376
#	229453
#	243910
#	258709
#	271836
#	283614
#
# Disc length: 3973 seconds
#
# Revision: 0
# Processed by: cddbd v1.5PL3 Copyright (c) Steve Scherf et al.
# Submitted via: CDex 1.50
#
DISCID=240f8315
DTITLE=Stan Kenton - Opus in Pastels
DYEAR=1900
DGENRE=Jazz
TTITLE0=Intermission Riff
TTITLE1=Artistry Jumps
TTITLE2=Painted Rhythm
TTITLE3=Peg O' My Heart
TTITLE4=Ecuador
TTITLE5=Opus in Pastels
TTITLE6=Capital Punishment
TTITLE7=Rhythm Incorporated
TTITLE8=Lover
TTITLE9=Corale for Brass, Piano and Bongo
TTITLE10=Abstraction
TTITLE11=Cuban Carnival
TTITLE12=Journey to Brazil
TTITLE13=Jolly Rogers
TTITLE14=Art Pepper
TTITLE15=Easy Go
TTITLE16=Love for Sale
TTITLE17=Viva Prado
TTITLE18=Something New
TTITLE19=Theme for Alto
TTITLE20=Riff Rhapsody
EXTD=
EXTT0=
EXTT1=
EXTT2=
EXTT3=
EXTT4=
EXTT5=
EXTT6=
EXTT7=
EXTT8=
EXTT9=
EXTT10=
EXTT11=
EXTT12=
EXTT13=
EXTT14=
EXTT15=
EXTT16=
EXTT17=
EXTT18=
EXTT19=
EXTT20=
PLAYORDER=
